<svg  viewBox="120 120 500 500" xmlns="http://www.w3.org/2000/svg">

    <path fill="#eab643" d="M268.97 440.41h219.74v-20.363s-38.832-29.836-42.148-69.145c-3.316-38.359-1.895-91.875-54.934-100.87 2.367-2.84 3.79-6.629 3.79-10.418 0-9.473-7.579-17.051-17.052-17.051s-17.05 7.578-17.05 17.051c0 4.262 1.421 7.578 3.788 10.418-53.043 8.996-51.62 62.039-54.934 100.87-3.316 39.309-42.148 69.145-42.148 69.145l-.004 20.363zm109.87-207.43c3.79 0 7.106 3.316 7.106 7.106 0 3.789-3.317 7.105-7.106 7.105s-7.105-3.316-7.105-7.105c.472-4.266 3.316-7.106 7.105-7.106z"/>
    <path id="bill-pin" fill="red" d="M378.84 472.61c14.68 0 26.52-11.367 27.941-25.574h-55.883c1.422 14.68 13.258 25.574 27.941 25.574z"/>
    <g class="waves" fill="#aaa">
        <path class="wave" d="m509.55 251.92-21.312 21.312c25.574 26.992 41.676 63.934 41.676 104.19 0 43.098-17.996 81.93-46.883 109.4l21.312 21.312c34.57-33.152 55.883-79.562 55.883-130.71-.004-48.781-19.418-92.824-50.676-125.5z"/>
        <path class="wave" d="M227.77 377.42c0-40.254 15.629-76.719 41.676-104.19l-21.312-21.312c-30.781 32.68-50.199 76.723-50.199 125.5 0 51.148 21.312 97.559 55.883 130.71l21.312-21.312c-28.891-27.465-47.359-66.773-47.359-109.39z"/>
        <path class="wave" d="m544.12 217.35-20.836 21.312c34.57 35.992 55.883 84.77 55.883 138.76 0 56.355-23.68 107.5-61.566 143.97l21.312 21.312 2.84-2.84c43.57-43.57 67.25-101.35 67.25-162.44 0-60.148-22.734-116.98-64.883-160.07z"/>
        <path class="wave" d="m234.88 238.66-21.312-21.312c-41.676 43.098-64.406 99.926-64.406 160.07 0 61.566 24.152 119.34 67.25 162.44l2.84 2.84 21.312-21.312c-37.887-36.465-61.566-87.613-61.566-143.97 0-53.984 21.312-102.76 55.883-138.75z"/>
    </g>
</svg>
