<svg
  xmlns="http://www.w3.org/2000/svg"
  viewBox="-20 0 500 500"
  xml:space="preserve"
>
  <path fill="#000"
    d="M439.086 177.286h-11.657V119c0-2.429-.972-4.372-2.429-6.314L329.314 3.4c-.485-.485-1.457-.971-1.942-1.457l-.486-.486c-.485-.485-1.457-.485-1.942-.971h-.486C323.972.486 323 0 322.028 0h-234.6C76.743 0 68 8.743 68 19.429v157.857H56.343c-15.543 0-27.686 12.629-27.686 27.686v144.257c0 15.543 12.629 27.686 27.686 27.686H68V476c0 10.686 8.743 19.429 19.429 19.429H408c10.686 0 19.429-8.743 19.429-19.429v-98.6h11.657c15.543 0 27.686-12.629 27.686-27.686V204.972c-.001-15.057-12.143-27.686-27.686-27.686zM87.429 19.429h224.886V119c0 5.343 4.371 9.714 9.714 9.714H408v48.571H87.429V19.429zM408 471.143H87.429V377.4H408v93.743z"
  />
  <rect  width="439.086" height="200" x="28.457" y="177" rx="30" ry="30" />
  <text
	data-file-name=""
    x="50%"
    y="320"
    fill="#fff"
    font-size="max(100%, 160px)"
    style="
      text-transform: upperCase;
      font-family: sans-serif;
      transform: translatex(-33%);
    "
  >
    pdf
  </text>
</svg>
