<svg xmlns="http://www.w3.org/2000/svg" viewBox="0 0 285.708 285.708" style="enable-background:new 0 0 285.708 285.708" xml:space="preserve" fill="currentColor"><path d="M73.26 90.095c24.779 0 44.939-20.209 44.939-45.05C118.199 20.207 98.039 0 73.26 0 48.48 0 28.32 20.207 28.32 45.045c-.001 24.841 20.159 45.05 44.94 45.05zm0-75.095c16.509 0 29.939 13.479 29.939 30.045 0 16.569-13.431 30.05-29.939 30.05s-29.94-13.481-29.94-30.05C43.319 28.479 56.751 15 73.26 15zm139.189 75.095c24.779 0 44.939-20.209 44.939-45.05C257.389 20.207 237.228 0 212.449 0c-24.78 0-44.94 20.207-44.94 45.045 0 24.841 20.16 45.05 44.94 45.05zm0-75.095c16.509 0 29.939 13.479 29.939 30.045 0 16.569-13.431 30.05-29.939 30.05-16.509 0-29.94-13.481-29.94-30.05 0-16.566 13.431-30.045 29.94-30.045z"/><path d="m283.987 148.117-7.646-38.342c-2.387-11.961-13.793-21.331-25.967-21.331h-16.532a7.5 7.5 0 0 0-5.311 2.204l-16.082 16.129-16.082-16.129a7.497 7.497 0 0 0-5.311-2.204h-16.534c-4.535 0-8.957 1.311-12.85 3.563a55.2 55.2 0 0 0-20.597-3.979 55.258 55.258 0 0 0-18.513 3.187c-3.519-1.765-7.404-2.771-11.378-2.771H94.652a7.5 7.5 0 0 0-5.311 2.204L73.26 106.777 57.178 90.648a7.497 7.497 0 0 0-5.311-2.204H35.333c-12.175 0-23.58 9.37-25.966 21.332L1.72 148.117a7.502 7.502 0 0 0 7.356 8.967h77.97c5.961 24.362 27.918 42.495 54.03 42.495 26.112 0 48.069-18.133 54.03-42.495h81.525a7.503 7.503 0 0 0 7.356-8.967zM24.078 112.71c.984-4.936 6.243-9.266 11.255-9.266h13.421l19.194 19.251a7.5 7.5 0 0 0 10.622 0l19.195-19.251h4.97c-10.257 9.796-16.791 23.461-17.252 38.64H18.22l5.858-29.374zm116.998 71.869c-22.407 0-40.637-18.293-40.637-40.777 0-22.482 18.229-40.773 40.637-40.773 22.407 0 40.637 18.291 40.637 40.773 0 22.484-18.23 40.777-40.637 40.777zm55.593-42.495c-.461-15.179-6.995-28.844-17.252-38.64h8.526l19.194 19.251a7.5 7.5 0 0 0 10.623 0l19.195-19.251h13.419c5.012 0 10.271 4.33 11.256 9.266l5.858 29.374h-70.819zm24.451 85.361c-2.876-14.412-16.616-25.702-31.282-25.702h-21.257a7.5 7.5 0 0 0-5.311 2.204l-22.194 22.259-22.194-22.259a7.497 7.497 0 0 0-5.311-2.204H92.313c-14.666 0-28.407 11.29-31.283 25.703l-9.83 49.295a7.502 7.502 0 0 0 7.356 8.967h165.041a7.503 7.503 0 0 0 7.356-8.967l-9.833-49.296zM67.699 270.708l8.042-40.327c1.449-7.266 9.193-13.638 16.572-13.638h18.145l25.308 25.381a7.497 7.497 0 0 0 10.621 0l25.308-25.381h18.144c7.379 0 15.122 6.372 16.571 13.637l8.044 40.328H67.699z"/></svg>