<svg viewBox="60 -30 640 640" xmlns="http://www.w3.org/2000/svg" fill="currentColor" 
style="outline:2px solid ; padding: 2px ;border-radius:.3em"><path d="M128.67 50.812a52.776 52.776 0 1 0-.008 105.55 52.769 52.769 0 0 0 37.316-15.457 52.773 52.773 0 0 0 15.461-37.316 52.836 52.836 0 0 0-52.77-52.778zm0 86.723a33.937 33.937 0 0 1-24.012-9.941 33.942 33.942 0 0 1-9.95-24.008 33.957 33.957 0 0 1 33.958-33.958 33.942 33.942 0 0 1 24.008 9.95 33.937 33.937 0 0 1 9.941 24.011c-.011 9-3.59 17.626-9.953 23.993a33.991 33.991 0 0 1-23.992 9.953zm95.496-33.949-.004.004a9.432 9.432 0 0 1 9.434-9.434h381.07a9.432 9.432 0 0 1 0 18.829h-381.08c-5.184-.012-9.387-4.211-9.407-9.395zm-95.496 123.64c-14 0-27.422 5.559-37.32 15.457a52.775 52.775 0 0 0 37.312 90.097 52.783 52.783 0 0 0 52.777-52.777 52.832 52.832 0 0 0-15.473-37.297 52.851 52.851 0 0 0-37.297-15.48zm0 86.73a33.937 33.937 0 0 1-24.012-9.941c-6.371-6.368-9.95-15.004-9.95-24.008s3.575-17.641 9.942-24.012a33.957 33.957 0 0 1 48.02 0 33.955 33.955 0 0 1 9.946 24.008c-.012 9-3.59 17.629-9.954 23.996a33.995 33.995 0 0 1-23.992 9.957zm495.43-33.953a9.429 9.429 0 0 1-9.434 9.43h-381.08a9.432 9.432 0 0 1 0-18.82h381.08a9.433 9.433 0 0 1 9.434 9.39zm-495.43 123.64a52.773 52.773 0 0 0-37.328 90.089 52.776 52.776 0 0 0 90.097-37.316 52.836 52.836 0 0 0-52.77-52.774zm0 86.73a33.97 33.97 0 0 1-24.012-9.941 33.945 33.945 0 0 1-9.95-24.012 33.95 33.95 0 0 1 9.942-24.008 33.955 33.955 0 0 1 57.965 24.004 33.993 33.993 0 0 1-33.945 33.957zm495.43-33.957a9.431 9.431 0 0 1-9.434 9.434h-381.08a9.432 9.432 0 0 1 0-18.825h381.08c5.196 0 9.41 4.2 9.434 9.39z"/></svg>