<svg xmlns="http://www.w3.org/2000/svg" viewBox="0 0 496 496" style="enable-background:new 0 0 496 496" xml:space="preserve" fill="blue"><path id="a" style="opacity:.9" d="M248 92c-13.6 0-24-10.4-24-24V24c0-13.6 10.4-24 24-24s24 10.4 24 24v44c0 12.8-10.4 24-24 24z"/><path id="b" opacity=".8" d="M338.4 116c-4 0-8-.8-12-3.2-11.2-6.4-15.2-21.6-8.8-32.8l21.6-37.6c6.4-11.2 21.6-15.2 32.8-8.8 11.2 6.4 15.2 21.6 8.8 32.8L359.2 104c-4.8 7.2-12.8 12-20.8 12z"/><path id="c" opacity=".7" d="M404 181.6c-8 0-16-4-20.8-12-6.4-11.2-2.4-26.4 8.8-32.8l37.6-21.6c11.2-6.4 26.4-2.4 32.8 8.8s2.4 26.4-8.8 32.8L416 178.4c-4 2.4-8 3.2-12 3.2z"/><path id="d" opacity=".6" d="M472 272h-44c-13.6 0-24-10.4-24-24s10.4-24 24-24h44c13.6 0 24 10.4 24 24s-10.4 24-24 24z"/><path id="e" opacity=".525" d="M442.4 384c-4 0-8-.8-12-3.2L392 359.2c-11.2-6.4-15.2-21.6-8.8-32.8 6.4-11.2 21.6-15.2 32.8-8.8l37.6 21.6c11.2 6.4 15.2 21.6 8.8 32.8-4 8-12 12-20 12z"/><path id="f" opacity=".475" d="M360 465.6c-8 0-16-4-20.8-12L317.6 416c-6.4-11.2-2.4-26.4 8.8-32.8 11.2-6.4 26.4-2.4 32.8 8.8l21.6 37.6c6.4 11.2 2.4 26.4-8.8 32.8-4 2.4-8 3.2-12 3.2z"/><g opacity=".6"><use href="#a" y="404"/><use href="#b" x="-202" y="350"/><use href="#c" x="-350" y="203"/><use href="#d" x="-404"/><use href="#e" x="-350" y="-203"/><use href="#f" x="-203" y="-350"/></g></svg>